<?xml version="1.0" encoding="utf-8"?>
<!-- Generator: Adobe Illustrator 26.3.1, SVG Export Plug-In . SVG Version: 6.00 Build 0)  -->
<svg version="1.1" id="Layer_1" xmlns="http://www.w3.org/2000/svg" xmlns:xlink="http://www.w3.org/1999/xlink" x="0px" y="0px"
	 viewBox="0 0 25.5 25.5" style="enable-background:new 0 0 25.5 25.5;" xml:space="preserve">
<style type="text/css">
	.st0{fill:none;stroke:#5B4AB0;stroke-width:1.5;stroke-linecap:round;stroke-linejoin:round;}
</style>
<g>
	<path class="st0" d="M6.1,16.8h13.3v5.3c0,0.7-0.3,1.4-0.8,1.9c-0.5,0.5-1.2,0.8-1.9,0.8h-8c-0.7,0-1.4-0.3-1.9-0.8
		c-0.5-0.5-0.8-1.2-0.8-1.9V16.8z"/>
	<path class="st0" d="M12.8,8.8c0-2.1-0.8-4.2-2.3-5.7C8.9,1.6,6.9,0.8,4.8,0.8h-4v2.7c0,2.1,0.8,4.2,2.3,5.7
		c1.5,1.5,3.5,2.3,5.7,2.3h4"/>
	<path class="st0" d="M12.8,11.4c0-2.1,0.8-4.2,2.3-5.7c1.5-1.5,3.5-2.3,5.7-2.3h4v1.3c0,2.1-0.8,4.2-2.3,5.7
		c-1.5,1.5-3.5,2.3-5.7,2.3h-4"/>
	<path class="st0" d="M12.8,16.8v-8"/>
</g>
</svg>
