<svg width="42" height="42" viewBox="0 0 42 42" fill="none" xmlns="http://www.w3.org/2000/svg">
<path d="M21 41C32.0457 41 41 32.0457 41 21C41 9.9543 32.0457 1 21 1C9.9543 1 1 9.9543 1 21C1 32.0457 9.9543 41 21 41Z" stroke="#5B4AB0" stroke-width="1.5" stroke-linecap="round" stroke-linejoin="round"/>
<path d="M2.3335 14.3335H39.6668" stroke="#5B4AB0" stroke-width="1.5" stroke-linecap="round" stroke-linejoin="round"/>
<path d="M2.3335 27.6665H39.6668" stroke="#5B4AB0" stroke-width="1.5" stroke-linecap="round" stroke-linejoin="round"/>
<path d="M19.8891 1C16.1454 6.99914 14.1606 13.9286 14.1606 21C14.1606 28.0714 16.1454 35.0009 19.8891 41" stroke="#5B4AB0" stroke-width="1.5" stroke-linecap="round" stroke-linejoin="round"/>
<path d="M22.1113 1C25.855 6.99914 27.8398 13.9286 27.8398 21C27.8398 28.0714 25.855 35.0009 22.1113 41" stroke="#5B4AB0" stroke-width="1.5" stroke-linecap="round" stroke-linejoin="round"/>
</svg>
