<?xml version="1.0" encoding="utf-8"?>
<!-- Generator: Adobe Illustrator 26.3.1, SVG Export Plug-In . SVG Version: 6.00 Build 0)  -->
<svg version="1.1" id="Layer_1" xmlns="http://www.w3.org/2000/svg" xmlns:xlink="http://www.w3.org/1999/xlink" x="0px" y="0px"
	 viewBox="0 0 36.2 27.5" style="enable-background:new 0 0 36.2 27.5;" xml:space="preserve">
<style type="text/css">
	.st0{fill:none;stroke:#5B4AB0;stroke-width:1.5;stroke-linecap:round;stroke-linejoin:round;}
</style>
<g>
	<path class="st0" d="M0.8,9.4c0,4.6,1.8,9,5.1,12.3c3.3,3.3,7.7,5.1,12.3,5.1s9-1.8,12.3-5.1c3.3-3.3,5.1-7.7,5.1-12.3"/>
	<path class="st0" d="M18.1,26.7c0-4.6,1.8-9,5.1-12.3c3.3-3.3,7.7-5.1,12.3-5.1"/>
	<path class="st0" d="M0.8,9.4c2.3,0,4.5,0.4,6.6,1.3c2.1,0.9,4,2.1,5.6,3.8c1.6,1.6,2.9,3.5,3.8,5.6c0.9,2.1,1.3,4.4,1.3,6.6"/>
	<path class="st0" d="M18.1,0.8c1.7,1.7,3.1,3.7,4,5.9c0.9,2.2,1.3,4.7,1.2,7.1"/>
	<path class="st0" d="M12.9,13.8c-0.1-2.4,0.3-4.8,1.2-7.1c0.9-2.2,2.3-4.3,4-5.9"/>
</g>
</svg>
