<?xml version="1.0" encoding="utf-8"?>
<!-- Generator: Adobe Illustrator 26.3.1, SVG Export Plug-In . SVG Version: 6.00 Build 0)  -->
<svg version="1.1" id="Layer_1" xmlns="http://www.w3.org/2000/svg" xmlns:xlink="http://www.w3.org/1999/xlink" x="0px" y="0px"
	 viewBox="0 0 41.5 37.5" style="enable-background:new 0 0 41.5 37.5;" xml:space="preserve">
<style type="text/css">
	.st0{fill:none;stroke:#5B4AB0;stroke-width:1.5;stroke-linecap:round;stroke-linejoin:round;}
</style>
<g>
	<path class="st0" d="M28.8,4.7l6,6l-4,2l8,8l-6,2l8,8h-18"/>
	<path class="st0" d="M26.8,36.7v-6"/>
	<path class="st0" d="M12.8,20.7l-4-4"/>
	<path class="st0" d="M12.8,18.7l4-4"/>
	<path class="st0" d="M12.8,36.7v-26"/>
	<path class="st0" d="M8.4,26.7c-0.9-0.1-1.7-0.3-2.5-0.7c-0.8-0.4-1.4-1-2-1.7S3,22.8,2.9,22c-0.2-0.9-0.2-1.7,0-2.6
		c-0.7-0.6-1.3-1.4-1.7-2.2c-0.4-0.9-0.5-1.8-0.5-2.8s0.3-1.9,0.8-2.7c0.5-0.8,1.1-1.5,1.9-2C2.8,8.5,2.6,7,2.9,5.6
		C3.1,4.2,3.9,3,5,2.1s2.5-1.4,3.9-1.3c1.4,0,2.8,0.6,3.8,1.5c1.1-0.9,2.4-1.5,3.8-1.5c1.4,0,2.8,0.4,3.9,1.3
		c1.1,0.9,1.9,2.1,2.1,3.5c0.3,1.4,0,2.8-0.7,4.1c0.8,0.5,1.5,1.2,1.9,2s0.8,1.7,0.8,2.7c0.1,0.9-0.1,1.9-0.5,2.8
		c-0.4,0.9-0.9,1.6-1.7,2.2c0.2,0.9,0.2,1.8,0,2.7c-0.2,0.9-0.6,1.7-1.2,2.4c-0.6,0.7-1.3,1.3-2.1,1.7s-1.7,0.6-2.6,0.6h-8L8.4,26.7
		z"/>
</g>
</svg>
