<svg width="64" height="64" viewBox="0 0 64 64" fill="none" xmlns="http://www.w3.org/2000/svg">
<path d="M32 41C36.9706 41 41 36.9706 41 32C41 27.0294 36.9706 23 32 23C27.0294 23 23 27.0294 23 32C23 36.9706 27.0294 41 32 41Z" stroke="url(#paint0_linear_1655_3383)" stroke-width="3.5" stroke-linecap="round" stroke-linejoin="round"/>
<path d="M32 56C45.2548 56 56 45.2548 56 32C56 18.7452 45.2548 8 32 8C18.7452 8 8 18.7452 8 32C8 45.2548 18.7452 56 32 56Z" stroke="url(#paint1_linear_1655_3383)" stroke-width="3.5" stroke-linecap="round" stroke-linejoin="round"/>
<path d="M32 2V8" stroke="url(#paint2_linear_1655_3383)" stroke-width="3.5" stroke-linecap="round" stroke-linejoin="round"/>
<path d="M32 56V62" stroke="url(#paint3_linear_1655_3383)" stroke-width="3.5" stroke-linecap="round" stroke-linejoin="round"/>
<path d="M56 32H62" stroke="url(#paint4_linear_1655_3383)" stroke-width="3.5" stroke-linecap="round" stroke-linejoin="round"/>
<path d="M2 32H8" stroke="url(#paint5_linear_1655_3383)" stroke-width="3.5" stroke-linecap="round" stroke-linejoin="round"/>
<defs>
<linearGradient id="paint0_linear_1655_3383" x1="23.6" y1="22.999" x2="40.9279" y2="23.0028" gradientUnits="userSpaceOnUse">
<stop stop-color="#FDA645"/>
<stop offset="1" stop-color="#FF00CD"/>
</linearGradient>
<linearGradient id="paint1_linear_1655_3383" x1="9.6" y1="7.99738" x2="55.8078" y2="8.00738" gradientUnits="userSpaceOnUse">
<stop stop-color="#FDA645"/>
<stop offset="1" stop-color="#FF00CD"/>
</linearGradient>
<linearGradient id="paint2_linear_1655_3383" x1="32.0333" y1="1.99967" x2="32.996" y2="1.99971" gradientUnits="userSpaceOnUse">
<stop stop-color="#FDA645"/>
<stop offset="1" stop-color="#FF00CD"/>
</linearGradient>
<linearGradient id="paint3_linear_1655_3383" x1="32.0333" y1="55.9997" x2="32.996" y2="55.9997" gradientUnits="userSpaceOnUse">
<stop stop-color="#FDA645"/>
<stop offset="1" stop-color="#FF00CD"/>
</linearGradient>
<linearGradient id="paint4_linear_1655_3383" x1="56.2" y1="31.9999" x2="61.976" y2="32.0074" gradientUnits="userSpaceOnUse">
<stop stop-color="#FDA645"/>
<stop offset="1" stop-color="#FF00CD"/>
</linearGradient>
<linearGradient id="paint5_linear_1655_3383" x1="2.2" y1="31.9999" x2="7.97596" y2="32.0074" gradientUnits="userSpaceOnUse">
<stop stop-color="#FDA645"/>
<stop offset="1" stop-color="#FF00CD"/>
</linearGradient>
</defs>
</svg>
