<?xml version="1.0" encoding="utf-8"?>
<!-- Generator: Adobe Illustrator 26.3.1, SVG Export Plug-In . SVG Version: 6.00 Build 0)  -->
<svg version="1.1" id="Layer_1" xmlns="http://www.w3.org/2000/svg" xmlns:xlink="http://www.w3.org/1999/xlink" x="0px" y="0px"
	 viewBox="0 0 78.5 78.5" style="enable-background:new 0 0 78.5 78.5;" xml:space="preserve">
<style type="text/css">
	.st0{fill:none;stroke:url(#SVGID_1_);stroke-width:3.5;stroke-linecap:round;stroke-linejoin:round;}
	
		.st1{fill:none;stroke:url(#SVGID_00000116922850257642077450000002000554930316181404_);stroke-width:3.5;stroke-linecap:round;stroke-linejoin:round;}
	
		.st2{fill:none;stroke:url(#SVGID_00000127027706469036601110000003948973719238836397_);stroke-width:3.5;stroke-linecap:round;stroke-linejoin:round;}
	
		.st3{fill:none;stroke:url(#SVGID_00000089539026839810240610000001325401425223550885_);stroke-width:3.5;stroke-linecap:round;stroke-linejoin:round;}
	
		.st4{fill:none;stroke:url(#SVGID_00000089569498226953570490000004541773853864369057_);stroke-width:3.5;stroke-linecap:round;stroke-linejoin:round;}
	
		.st5{fill:none;stroke:url(#SVGID_00000049198539775448934120000005364355407237938588_);stroke-width:3.5;stroke-linecap:round;stroke-linejoin:round;}
	
		.st6{fill:none;stroke:url(#SVGID_00000125582651456701316250000017807747501410897049_);stroke-width:3.5;stroke-linecap:round;stroke-linejoin:round;}
</style>
<g>
	
		<linearGradient id="SVGID_1_" gradientUnits="userSpaceOnUse" x1="31.4704" y1="70.4182" x2="47.5148" y2="70.4146" gradientTransform="matrix(1 0 0 -1 0 80.5)">
		<stop  offset="0" style="stop-color:#FDA645"/>
		<stop  offset="1" style="stop-color:#FF00CD"/>
	</linearGradient>
	<path class="st0" d="M39.2,18.4c4.6,0,8.3-3.7,8.3-8.3c0-4.6-3.7-8.3-8.3-8.3s-8.3,3.7-8.3,8.3C30.9,14.7,34.6,18.4,39.2,18.4z"/>
	
		<linearGradient id="SVGID_00000115474955071584207050000008118040316040026022_" gradientUnits="userSpaceOnUse" x1="2.3038" y1="12.0849" x2="18.3481" y2="12.0814" gradientTransform="matrix(1 0 0 -1 0 80.5)">
		<stop  offset="0" style="stop-color:#FDA645"/>
		<stop  offset="1" style="stop-color:#FF00CD"/>
	</linearGradient>
	
		<path style="fill:none;stroke:url(#SVGID_00000115474955071584207050000008118040316040026022_);stroke-width:3.5;stroke-linecap:round;stroke-linejoin:round;" d="
		M10.1,76.7c4.6,0,8.3-3.7,8.3-8.3c0-4.6-3.7-8.3-8.3-8.3c-4.6,0-8.3,3.7-8.3,8.3C1.8,73,5.5,76.7,10.1,76.7z"/>
	
		<linearGradient id="SVGID_00000128457626201606760750000000601834330242642060_" gradientUnits="userSpaceOnUse" x1="60.6371" y1="12.0849" x2="76.6815" y2="12.0814" gradientTransform="matrix(1 0 0 -1 0 80.5)">
		<stop  offset="0" style="stop-color:#FDA645"/>
		<stop  offset="1" style="stop-color:#FF00CD"/>
	</linearGradient>
	
		<path style="fill:none;stroke:url(#SVGID_00000128457626201606760750000000601834330242642060_);stroke-width:3.5;stroke-linecap:round;stroke-linejoin:round;" d="
		M68.4,76.7c4.6,0,8.3-3.7,8.3-8.3c0-4.6-3.7-8.3-8.3-8.3c-4.6,0-8.3,3.7-8.3,8.3C60.1,73,63.8,76.7,68.4,76.7z"/>
	
		<linearGradient id="SVGID_00000057842783895956371450000005094393029478598586_" gradientUnits="userSpaceOnUse" x1="27.5806" y1="32.919" x2="51.6472" y2="32.9138" gradientTransform="matrix(1 0 0 -1 0 80.5)">
		<stop  offset="0" style="stop-color:#FDA645"/>
		<stop  offset="1" style="stop-color:#FF00CD"/>
	</linearGradient>
	
		<path style="fill:none;stroke:url(#SVGID_00000057842783895956371450000005094393029478598586_);stroke-width:3.5;stroke-linecap:round;stroke-linejoin:round;" d="
		M39.2,60.1c6.9,0,12.5-5.6,12.5-12.5c0-6.9-5.6-12.5-12.5-12.5s-12.5,5.6-12.5,12.5C26.8,54.5,32.3,60.1,39.2,60.1z"/>
	
		<linearGradient id="SVGID_00000041999146342770590510000005263485647888629420_" gradientUnits="userSpaceOnUse" x1="39.2824" y1="53.7499" x2="40.2451" y2="53.7498" gradientTransform="matrix(1 0 0 -1 0 80.5)">
		<stop  offset="0" style="stop-color:#FDA645"/>
		<stop  offset="1" style="stop-color:#FF00CD"/>
	</linearGradient>
	
		<path style="fill:none;stroke:url(#SVGID_00000041999146342770590510000005263485647888629420_);stroke-width:3.5;stroke-linecap:round;stroke-linejoin:round;" d="
		M39.2,18.4v16.7"/>
	
		<linearGradient id="SVGID_00000157276221170282386460000006929867575569625250_" gradientUnits="userSpaceOnUse" x1="17.5543" y1="21.2513" x2="28.7853" y2="21.2479" gradientTransform="matrix(1 0 0 -1 0 80.5)">
		<stop  offset="0" style="stop-color:#FDA645"/>
		<stop  offset="1" style="stop-color:#FF00CD"/>
	</linearGradient>
	
		<path style="fill:none;stroke:url(#SVGID_00000157276221170282386460000006929867575569625250_);stroke-width:3.5;stroke-linecap:round;stroke-linejoin:round;" d="
		M17.2,63.4l11.7-8.3"/>
	
		<linearGradient id="SVGID_00000062160933699600308730000016650496683523207046_" gradientUnits="userSpaceOnUse" x1="50.0543" y1="21.2513" x2="61.2853" y2="21.2479" gradientTransform="matrix(1 0 0 -1 0 80.5)">
		<stop  offset="0" style="stop-color:#FDA645"/>
		<stop  offset="1" style="stop-color:#FF00CD"/>
	</linearGradient>
	
		<path style="fill:none;stroke:url(#SVGID_00000062160933699600308730000016650496683523207046_);stroke-width:3.5;stroke-linecap:round;stroke-linejoin:round;" d="
		M61.3,63.4l-11.7-8.3"/>
</g>
</svg>
